Coordinates
version=1
nRows=9
nColumns=36
inDegrees=yes

Units are S.I. units (second, meters, Newtons, ...)
If the header above contains a line with 'inDegrees', this indicates whether rotational values are in degrees (yes) or radians (no).

endheader
time	pelvis_tilt	pelvis_list	pelvis_rotation	pelvis_tx	pelvis_ty	pelvis_tz	hip_flexion_r	hip_adduction_r	hip_rotation_r	knee_angle_r	knee_angle_r_beta	ankle_angle_r	subtalar_angle_r	mtp_angle_r	hip_flexion_l	hip_adduction_l	hip_rotation_l	knee_angle_l	knee_angle_l_beta	ankle_angle_l	subtalar_angle_l	mtp_angle_l	lumbar_extension	lumbar_bending	lumbar_rotation	arm_flex_r	arm_add_r	arm_rot_r	elbow_flex_r	pro_sup_r	arm_flex_l	arm_add_l	arm_rot_l	elbow_flex_l	pro_sup_l
      2.46666670	    -20.57626591	     -0.54891855	      7.15507550	      0.62480998	      0.75818927	     -0.15751081	     76.19128335	     -5.01789974	      3.57639541	     90.92989479	      1.58702605	     31.61730887	    -24.55109152	     -7.49999987	     74.89072961	     -2.16213822	      1.37341685	     85.82264959	      1.49788781	     29.26404045	    -12.20814779	     -7.49999987	    -26.12249390	     -4.60345633	      0.17717851	    120.26814698	    -36.73275547	     78.27952760	     61.10708458	     63.74542069	    120.92303616	    -20.86902826	     74.36116228	     86.43177908	     60.07643575
      2.48333330	    -19.93749131	     -0.56152339	      7.04826412	      0.63793132	      0.77514345	     -0.16121993	     73.16556800	     -4.60075450	      3.65947652	     88.16065086	      1.53869363	     29.89728171	    -26.31813262	     -7.49999987	     71.98864394	     -1.99843169	      1.27350450	     83.28965808	      1.45367877	     28.99442481	    -12.38920018	     -7.49999987	    -23.89790882	     -4.75242352	      3.81219180	    124.10326173	    -32.12819619	     81.17756495	     50.20342337	     62.65135786	    121.87418293	    -15.09556966	     71.35158249	     80.61323412	     59.72427335
      2.50000000	    -19.56358869	     -0.64877778	      7.16145144	      0.64015559	      0.79311360	     -0.16420876	     70.17775189	     -4.48785464	      3.59885500	     84.86633050	      1.48119689	     28.49892897	    -27.24898832	     -7.49999987	     69.15148103	     -1.57389276	      1.24279124	     80.27228748	      1.40101571	     28.15802052	    -12.92747976	     -7.49999987	    -22.07932956	     -3.88708842	      4.77062593	    124.80295060	    -28.57238696	     79.46164484	     46.79176347	     60.49752522	    123.66099589	    -16.73277204	     70.19362230	     82.77576739	     59.83310533
      2.51666670	    -19.33099927	     -0.86481812	      7.36972009	      0.64792435	      0.81265590	     -0.16277039	     66.98750885	     -4.29434041	      3.50087483	     81.10086704	      1.41547716	     26.91479881	    -28.14111253	     -7.49999987	     66.18199949	     -1.33991151	      1.45416177	     76.73038582	      1.33919787	     26.86836517	    -13.61387898	     -7.49999987	    -19.98107958	     -2.99817042	      6.12944925	    123.95784140	    -31.04388804	     76.91543565	     53.81703687	     60.26925678	    123.25899030	    -19.36154189	     72.88840527	     95.44919764	     60.74044167
      2.53333330	    -19.11438813	     -0.69928866	      7.14784919	      0.65414320	      0.83095735	     -0.16476055	     63.78679915	     -4.08134619	      3.56253555	     77.03770132	      1.34456154	     25.04085145	    -29.15100851	     -7.49999987	     62.93130032	     -1.11107821	      1.38725480	     72.89772799	      1.27230537	     25.45342029	    -14.56242818	     -7.49999987	    -18.45158384	     -2.03457563	      1.12106144	    122.28587360	    -24.05458277	     70.83297130	     51.70949980	     59.43290121	    132.51471175	    -30.40534382	     79.67342616	    100.27825476	     60.53394823
      2.55000000	    -19.14582803	     -0.64853787	      6.58931418	      0.65991429	      0.85773600	     -0.16488743	     60.94803689	     -3.67700203	      3.57597292	     72.52196109	      1.26574700	     22.23854449	    -30.30784233	     -7.49999987	     59.91132758	     -1.19518657	      1.42666489	     68.36289550	      1.19315761	     23.23742251	    -15.56975185	     -7.49999987	    -17.00439003	      0.20255185	     -9.08479291	    119.11898743	    -11.30903683	     62.48544550	     50.16519807	     63.92571756	    149.55765357	    -49.18688825	     93.51952984	    110.56302942	     52.21615146
      2.56666670	    -18.53459430	     -0.85293200	      5.91645023	      0.67382112	      0.88369437	     -0.17127169	     56.77793545	     -3.29115772	      3.16465169	     67.10539815	      1.17121014	     19.52701540	    -30.79968510	     -7.49999987	     55.86586666	     -1.38039884	      1.67635259	     63.39403008	      1.10643455	     21.01107448	    -15.61778581	     -7.49999987	    -17.33176539	      3.31585385	    -31.73496977	    116.59951174	     11.19625329	     52.46342884	     48.30180788	     68.74913842	    226.53018620	    -49.96148267	    154.25760509	    134.37611830	     35.25636528
      2.58333330	    -18.32469010	     -0.99943152	      5.79228860	      0.69136659	      0.90519548	     -0.17283871	     52.44061295	     -3.36139731	      2.53326740	     61.31797505	      1.07020056	     16.67966826	    -31.34878588	     -7.49999987	     52.05125271	     -1.48609390	      1.49689381	     58.35089932	      1.01841531	     18.60884330	    -15.03828966	     -7.49999987	    -14.12719230	      2.51300625	    -31.27909062	    114.84617656	      2.37594570	     60.34299837	     60.59670855	     68.64321791	    225.47386848	    -51.05103812	    154.46032391	    131.34582481	     38.81020808
      2.60000000	    -17.60894916	     -1.14580877	      5.43888275	      0.69726813	      0.93009284	     -0.17389943	     47.59325715	     -3.20217780	      1.97405848	     54.62993793	      0.95347229	     13.52845365	    -31.44656188	     -7.49999987	     47.96983681	     -1.79222463	      1.21700564	     53.31513140	      0.93052458	     15.87121720	    -13.90270866	     -7.49999987	    -11.40965456	      1.63082406	    -28.71815473	    114.47244177	     -8.07672380	     70.63594878	     75.28379296	     66.03366256	    220.28257477	    -54.08374048	    152.72471887	    126.87926124	     43.25374111
